<?xml version="1.0" encoding="UTF-8"?>
<!-- DontSpeak foreground layer (transparent): speech bubble + </> glyph, centered on
     a 1024 canvas. The gradient tile is the icon.json background fill, so this layer
     carries only the foreground art (gets the Liquid Glass treatment). -->
<svg width="1024" height="1024" viewBox="0 0 1024 1024" xmlns="http://www.w3.org/2000/svg">
  <svg x="152" y="152" width="720" height="720" viewBox="47 67 446 391" preserveAspectRatio="xMidYMid meet">
    <path d="M 270,90 C 390,90 470,165 470,250 C 470,335 390,410 270,410
             C 238,410 205,404 178,392 L 115,425 C 102,432 90,420 96,406
             L 112,365 C 86,335 70,295 70,250 C 70,165 150,90 270,90 Z" fill="#FFFFFF"/>
    <g fill="none" stroke="#5B4397" stroke-width="26" stroke-linecap="round" stroke-linejoin="round">
      <path d="M 215,200 L 160,250 L 215,300"/>
      <path d="M 275,170 L 235,330"/>
      <path d="M 295,200 L 350,250 L 295,300"/>
    </g>
  </svg>
</svg>
